<svg xmlns="http://www.w3.org/2000/svg" version="1.1" xmlns:xlink="http://www.w3.org/1999/xlink" xmlns:svgjs="http://svgjs.dev/svgjs" width="1500" height="1500" viewBox="0 0 1500 1500"><rect width="1500" height="1500" fill="#000000"></rect><g transform="matrix(0.6666666666666666,0,0,0.6666666666666666,249.50000000000006,249.50000000000006)"><svg viewBox="0 0 280 280" data-background-color="#ffffff" preserveAspectRatio="xMidYMid meet" height="1500" width="1500" xmlns="http://www.w3.org/2000/svg" xmlns:xlink="http://www.w3.org/1999/xlink"><g id="tight-bounds" transform="matrix(1,0,0,1,0.13999999999998636,0.13999999999998636)"><svg viewBox="0 0 279.72 279.72" height="279.72" width="279.72"><g><svg viewBox="0 0 279.72 279.72" height="279.72" width="279.72"><g><svg viewBox="0 0 279.72 279.72" height="279.72" width="279.72"><g id="textblocktransform"><svg viewBox="0 0 279.72 279.72" height="279.72" width="279.72" id="textblock"><g><svg viewBox="0 0 279.72 279.72" height="279.72" width="279.72"><g transform="matrix(1,0,0,1,57.446704652707865,57.446704652707865)"><svg viewBox="0 0 164.8265906945843 164.8265906945843" height="164.8265906945843" width="164.8265906945843"><g id="icon-0"><circle r="82" cx="82.41329534729215" cy="82.41329534729215" fill="#ffffff" data-fill-palette-color="accent"></circle><svg xmlns="http://www.w3.org/2000/svg" xmlns:xlink="http://www.w3.org/1999/xlink" version="1.1" x="24.723988604187646" y="24.72398860418764" viewBox="22.91225832465105 1.2674691358024694 63.74442158398924 97.21153086419753" enable-background="new 0 0 100 100" xml:space="preserve" height="115.378613486209" width="115.378613486209" class="icon-jxe-0" data-fill-palette-color="quaternary" id="jxe-0"><g fill="#ffffff" data-fill-palette-color="quaternary"><g fill="#ffffff" data-fill-palette-color="quaternary"><g fill="#ffffff" data-fill-palette-color="quaternary"><path d="M86.306 36.951L86.049 37.849S83.609 36.951 82.452 34.895C82.452 34.895 83.993 38.621 85.406 39.519 85.406 39.519 85.406 42.602 84.379 43.886 84.379 43.886 81.296 43.629 80.14 44.657H84.122S81.425 50.566 83.223 52.75C83.223 52.75 81.425 53.136 80.397 51.466 79.242 49.796 79.499 49.026 78.599 48.126L78.213 47.74S78.471 50.694 77.828 51.337C77.828 51.337 75.772 45.942 73.846 45.814S68.067 45.814 68.067 45.814 63.442 52.494 68.452 60.329C68.452 60.329 64.855 57.118 64.085 54.292 64.085 54.292 64.342 59.559 67.682 62.256 67.682 62.256 65.498 62.385 63.828 59.173L63.699 59.045C63.699 59.173 63.828 59.173 63.828 59.173 64.085 60.201 64.471 64.696 68.067 65.853 68.067 65.853 63.185 68.55 59.588 63.285 59.588 63.285 66.011 81.267 51.753 98.479 51.753 98.479 60.744 80.881 46.23 66.367 46.23 66.367 39.936 60.972 36.853 68.679 36.853 68.679 34.926 73.817 38.266 77.541 38.266 77.541 28.119 76.77 27.22 63.412 27.22 63.412 26.449 57.247 28.504 52.751 30.431 48.384 28.889 46.457 27.99 47.613 27.99 47.613 25.036 49.54 25.164 56.218L25.036 57.503S22.467 53.649 22.98 42.474C22.98 42.474 24.907 27.959 31.714 22.308 31.714 22.308 26.191 25.905 24.264 28.216 24.264 28.216 25.163 22.95 26.833 19.995S31.071 13.316 31.071 13.316 32.998 10.747 34.283 10.747C34.283 10.747 36.98 7.407 38.521 7.407 38.521 7.407 41.476 7.407 41.99 6.636S47.385 0.728 48.027 1.369C48.027 1.369 51.881 0.855 53.422 2.14 55.092 3.424 56.89 5.222 58.303 5.608 58.303 5.608 59.074 5.994 60.872 5.865 60.872 5.865 65.753 6.122 63.954 12.929L63.569 13.315S68.836 16.398 70.12 18.325C71.276 20.123 71.404 22.949 71.404 23.077 71.533 23.206 71.533 24.104 73.716 25.004 76.028 26.031 82.579 28.73 82.579 28.73S86.047 30.914 86.304 31.941 86.948 35.409 86.306 36.951M63.827 59.172L63.698 59.044C63.698 59.172 63.827 59.172 63.827 59.172M70.635 22.693C67.424 23.078 65.754 22.693 65.754 22.693 65.754 24.363 68.194 25.005 68.194 25.005 69.479 24.748 70.635 22.693 70.635 22.693" fill="#000000" data-fill-palette-color="quaternary"></path></g></g></g></svg></g></svg></g><g id="text-0"><path d="M136.339 0.84l-0.005-0.754 12.896-0.086 0.005 0.754-2.184 0.015 0.114 17.135c0.024 3.567-0.766 6.17-2.37 7.809-1.597 1.639-4.011 2.469-7.241 2.491v0c-2.138 0.014-3.838-0.385-5.101-1.197-1.263-0.812-1.899-1.96-1.909-3.443v0c-0.008-1.132 0.304-2.024 0.935-2.676 0.631-0.653 1.496-0.983 2.594-0.991 1.092-0.007 1.911 0.265 2.458 0.818 0.546 0.552 0.822 1.219 0.828 2 0.005 0.774-0.135 1.56-0.422 2.356v0l-1.548 0.01c-0.236 0.399-0.352 0.777-0.35 1.134 0.002 0.357 0.183 0.661 0.542 0.91 0.359 0.249 0.83 0.372 1.412 0.368v0c1.059-0.007 1.738-0.429 2.037-1.265 0.299-0.836 0.439-2.64 0.421-5.413v0l-0.134-19.994z" fill="#ffffff" data-fill-palette-color="primary"></path><path d="M11.574 143.776c0-1.757 1.425-3.182 3.182-3.182 1.757 0 3.182 1.425 3.182 3.182 0 1.757-1.425 3.182-3.182 3.183-1.757 0-3.182-1.425-3.182-3.183z" fill="#ffffff" data-fill-palette-color="primary"></path><path d="M261.508 143.776c0-1.757 1.425-3.182 3.182-3.182 1.757 0 3.182 1.425 3.182 3.182 0 1.757-1.425 3.182-3.182 3.183-1.757 0-3.182-1.425-3.182-3.183z" fill="#ffffff" data-fill-palette-color="primary"></path></g><g id="text-1"><path d="M15.359 198.983l-1.775-5.206 9.026-8.259-0.157-0.461-0.635-1.86-10.608 3.617-1.647-4.829 26.282-8.962 2.114 6.201c2.162 6.339 0.668 10.387-4.481 12.143v0c-1.597 0.545-3.132 0.669-4.603 0.374-1.469-0.289-2.766-1.036-3.889-2.24v0zM25.868 183.599c0.511 1.497 1.234 2.46 2.17 2.889 0.936 0.429 2.178 0.38 3.726-0.148v0c1.447-0.493 2.387-1.202 2.82-2.126 0.439-0.926 0.387-2.188-0.158-3.785v0l-0.467-1.372-8.636 2.945z" fill="#ffffff" data-fill-palette-color="primary"></path><path d="M60.631 225.952c1.895 1.886 2.709 4.019 2.443 6.397-0.271 2.383-1.709 4.883-4.315 7.499v0c-2.498 2.509-4.978 3.935-7.438 4.278-2.466 0.347-4.636-0.413-6.513-2.281v0c-1.881-1.872-2.667-4.028-2.359-6.467 0.308-2.43 1.739-4.927 4.293-7.493v0c2.531-2.542 5.006-3.968 7.425-4.278 2.428-0.31 4.583 0.472 6.464 2.345zM57.99 228.604c-0.816-0.813-1.816-1.004-2.999-0.576-1.183 0.429-2.718 1.59-4.604 3.485v0c-1.91 1.918-3.076 3.47-3.5 4.655-0.423 1.185-0.227 2.184 0.59 2.997v0c0.816 0.813 1.816 1.004 2.999 0.576 1.183-0.429 2.73-1.602 4.639-3.521v0c1.905-1.914 3.065-3.458 3.478-4.634 0.414-1.176 0.213-2.17-0.603-2.982z" fill="#ffffff" data-fill-palette-color="primary"></path><path d="M103.111 252.043c2.375 0.827 4.112 2.311 5.209 4.453v0l-2.666 1.92c-0.53-0.752-1.067-1.363-1.612-1.833-0.548-0.478-1.151-0.832-1.807-1.06v0c-0.731-0.255-1.375-0.258-1.93-0.01-0.556 0.248-0.952 0.713-1.19 1.394v0c-0.237 0.681-0.194 1.313 0.129 1.895 0.323 0.582 1.097 1.398 2.322 2.448v0c1.507 1.289 2.512 2.546 3.017 3.774 0.511 1.229 0.493 2.628-0.053 4.197v0c-0.677 1.944-1.897 3.243-3.659 3.897-1.754 0.651-3.682 0.61-5.782-0.121v0c-1.369-0.477-2.542-1.162-3.521-2.056-0.978-0.894-1.744-1.935-2.297-3.123v0l3.15-1.71c0.988 1.732 2.216 2.853 3.685 3.365v0c0.831 0.289 1.564 0.299 2.197 0.029 0.636-0.276 1.091-0.808 1.365-1.596v0c0.202-0.581 0.268-1.091 0.197-1.529-0.08-0.434-0.318-0.899-0.713-1.394-0.397-0.489-1.036-1.1-1.916-1.834v0c-1.507-1.289-2.473-2.519-2.899-3.691-0.432-1.174-0.401-2.47 0.093-3.888v0c0.59-1.694 1.679-2.881 3.268-3.561 1.583-0.682 3.387-0.671 5.413 0.034z" fill="#ffffff" data-fill-palette-color="primary"></path><path d="M161.072 267.271c0.023 0.237 0.049 0.92 0.079 2.047v0l-10.919 1.057c0.317 2.177 0.844 3.669 1.58 4.475 0.736 0.8 1.703 1.142 2.902 1.026v0c0.83-0.08 1.564-0.291 2.203-0.633 0.638-0.348 1.313-0.865 2.024-1.552v0l2.316 2.598c-1.688 1.999-3.84 3.125-6.455 3.378v0c-2.773 0.269-4.994-0.487-6.663-2.267-1.661-1.774-2.661-4.407-2.999-7.899v0c-0.339-3.498 0.099-6.327 1.313-8.485 1.22-2.166 3.121-3.374 5.703-3.624v0c2.484-0.24 4.504 0.472 6.062 2.136 1.565 1.67 2.516 4.251 2.854 7.743zM156.157 266.57l-0.027-0.277c-0.194-2.003-0.576-3.439-1.145-4.308-0.57-0.876-1.389-1.262-2.456-1.158v0c-0.982 0.095-1.689 0.616-2.123 1.562-0.434 0.94-0.596 2.535-0.484 4.784v0z" fill="#ffffff" data-fill-palette-color="primary"></path><path d="M208.854 261.866c-1.264 0.709-2.483 0.877-3.657 0.503-1.176-0.365-2.131-1.202-2.866-2.513v0l-12.443-22.184 4.054-2.877 12.604 22.469c0.168 0.3 0.378 0.505 0.629 0.615 0.242 0.107 0.505 0.081 0.787-0.078v0c0.162-0.091 0.305-0.201 0.429-0.331 0.124-0.13 0.212-0.21 0.264-0.24v0l2.492 2.473c-0.547 0.891-1.312 1.612-2.293 2.163z" fill="#ffffff" data-fill-palette-color="primary"></path><path d="M247.35 227.969c-0.912 1.126-1.982 1.733-3.211 1.82-1.228 0.096-2.425-0.328-3.593-1.274v0l-19.767-16.005 2.702-4.174 20.022 16.212c0.267 0.217 0.538 0.329 0.812 0.338 0.265 0.01 0.499-0.111 0.703-0.363v0c0.117-0.144 0.208-0.3 0.276-0.467 0.067-0.167 0.119-0.274 0.157-0.32v0l3.229 1.376c-0.179 1.031-0.622 1.983-1.33 2.857z" fill="#ffffff" data-fill-palette-color="primary"></path><path d="M248.405 179.964l1.505-4.71 20.247 6.467-1.504 4.71zM239.042 174.398c0.268-0.839 0.753-1.434 1.456-1.786 0.703-0.352 1.477-0.393 2.322-0.123v0c0.813 0.26 1.404 0.737 1.773 1.431 0.369 0.694 0.419 1.461 0.152 2.3v0c-0.27 0.845-0.756 1.443-1.46 1.795-0.703 0.352-1.461 0.398-2.274 0.139v0c-0.845-0.27-1.452-0.752-1.821-1.447-0.369-0.694-0.418-1.464-0.148-2.309z" fill="#ffffff" data-fill-palette-color="primary"></path></g></svg></g></svg></g></svg></g><g></g></svg></g><defs></defs></svg><rect width="279.72" height="279.72" fill="none" stroke="none" visibility="hidden"></rect></g></svg></g></svg>